<?xml version="1.0" encoding="UTF-8"?>
<svg width="24px" height="24px" viewBox="0 0 24 24" version="1.1" xmlns="http://www.w3.org/2000/svg" xmlns:xlink="http://www.w3.org/1999/xlink">
    <!-- Generator: sketchtool 63.1 (101010) - https://sketch.com -->
    <title>87CC6B69-E7DB-4713-BAB9-921CAC22ABA9</title>
    <desc>Created with sketchtool.</desc>
    <defs>
        <path d="M9.012,15 L11.012,15 L11.012,9 L9.012,9 L9.012,15 Z M10,5 C10.553,5 11,5.447 11,6 C11,6.553 10.553,7 10,7 C9.447,7 9,6.553 9,6 C9,5.447 9.447,5 10,5 L10,5 Z M10,0 C4.486,0 0,4.486 0,10 C0,15.514 4.486,20 10,20 C15.514,20 20,15.514 20,10 C20,4.486 15.514,0 10,0 L10,0 Z" id="path-1"></path>
    </defs>
    <g id="Page-1" stroke="none" stroke-width="1" fill="none" fill-rule="evenodd">
        <g id="1920px-OTP-PW-Expired-Operator-ID-Validated" transform="translate(-1378.000000, -594.000000)">
            <g id="icn_info/circle-solid" transform="translate(1378.000000, 594.000000)">
                <rect id="bounding_box" fill-rule="nonzero" x="0" y="0" width="24" height="24"></rect>
                <g id="color" transform="translate(2.000000, 2.000000)">
                    <mask id="mask-2" fill="white">
                        <use xlink:href="#path-1"></use>
                    </mask>
                    <use id="Mask" fill="#767676" xlink:href="#path-1"></use>
                    <g id="color/primary" mask="url(#mask-2)" fill="#0033AA">
                        <g transform="translate(-2.000000, -2.000000)" id="Rectangle">
                            <rect x="0" y="0" width="24" height="24"></rect>
                        </g>
                    </g>
                </g>
            </g>
        </g>
    </g>
</svg>