<svg id="icn_cash_notes" xmlns="http://www.w3.org/2000/svg" viewBox="0 0 24 24"><defs><style>.a{fill:currentColor;}</style></defs><title>icn_cash_notes</title><path class="a" d="M3.5,8h17a.5.5,0,0,0,0-1H3.5a.5.5,0,0,0,0,1Z"/><path class="a" d="M5.5,6h13a.5.5,0,0,0,0-1H5.5a.5.5,0,0,0,0,1Z"/><path class="a" d="M2,9V19H22V9Zm19,6.8A4.22,4.22,0,0,0,18.8,18H5.2A4.22,4.22,0,0,0,3,15.8V12.2A4.22,4.22,0,0,0,5.2,10H18.8A4.22,4.22,0,0,0,21,12.2Z"/><path class="a" d="M6.5,12a.5.5,0,0,0-.5.5v3a.5.5,0,0,0,1,0v-3A.5.5,0,0,0,6.5,12Z"/><path class="a" d="M17.5,12a.5.5,0,0,0-.5.5v3a.5.5,0,0,0,1,0v-3A.5.5,0,0,0,17.5,12Z"/><circle class="a" cx="12" cy="14" r="3"/></svg>