<?xml version="1.0" encoding="UTF-8"?>
<svg width="20px" height="20px" viewBox="0 0 20 20" version="1.1" xmlns="http://www.w3.org/2000/svg" xmlns:xlink="http://www.w3.org/1999/xlink">
    <!-- Generator: Sketch 63.1 (92452) - https://sketch.com -->
    <title>icon/icn/map/globe/24</title>
    <desc>Created with Sketch.</desc>
    <defs>
        <path d="M2,12 C2,17.514 6.486,22 12.001,22 L12.001,22 C17.514,22 22.001,17.514 22.001,12 L22.001,12 C22.001,6.486 17.514,2 12.001,2 L12.001,2 C6.486,2 2,6.486 2,12 L2,12 Z M5.94,4.83 L7.029,3.893 C7.999,3.295 9.087,2.869 10.247,2.651 L10.247,2.651 C10.235,2.678 10.091,2.978 9.185,3.117 L9.185,3.117 C9.185,3.117 8.507,3.64 7.899,3.688 L7.899,3.688 C7.899,3.688 7.784,3.732 7.646,3.809 L7.646,3.809 L7.632,3.802 C7.632,3.802 7.605,3.825 7.559,3.861 L7.559,3.861 C7.473,3.915 7.387,3.981 7.314,4.057 L7.314,4.057 C7.246,4.111 7.172,4.17 7.094,4.232 L7.094,4.232 C6.779,4.486 6.403,4.786 6.207,4.943 L6.207,4.943 C6.207,4.943 6.035,5.108 5.946,5.108 L5.946,5.108 C5.89,5.108 5.866,5.042 5.94,4.83 L5.94,4.83 Z M14.632,3.269 L14.438,2.806 C18.329,3.838 21.248,7.28 21.496,11.43 L21.496,11.43 L21.373,11.437 C20.721,11.612 20.922,12.101 20.922,12.101 L20.922,12.101 C21.511,12.664 20.922,13.191 20.922,13.191 L20.922,13.191 L20.847,13.654 L20.847,14.319 C20.697,14.331 20.647,14.494 20.647,14.494 L20.647,14.494 C20.922,14.995 20.571,15.057 20.571,15.057 L20.571,15.057 C20.608,15.522 20.433,15.873 20.433,15.873 L20.433,15.873 C20.158,16.299 20.27,15.546 20.27,15.546 L20.27,15.546 L20.22,15.108 L20.295,14.732 L20.27,14.547 L20.22,14.156 C20.183,13.83 20.371,13.993 20.371,13.993 L20.371,13.993 C20.659,14.193 20.646,13.968 20.646,13.968 L20.646,13.968 C20.559,13.817 20.646,13.529 20.646,13.529 L20.646,13.529 L20.646,13.253 L20.646,12.602 C20.145,12.664 20.432,12.376 20.432,12.376 L20.432,12.376 C20.432,12.376 20.396,12.277 20.42,12.239 L20.42,12.239 C20.445,12.201 20.42,12.025 20.42,12.025 L20.42,12.025 L20.27,11.826 L20.27,11.412 C19.983,11.186 19.744,11.5 19.744,11.5 L19.744,11.5 L19.368,12.088 C19.368,12.088 19.069,12.435 19.056,12.442 L19.056,12.442 C19.063,12.451 19.143,12.64 19.143,12.64 L19.143,12.64 L19.068,12.965 C19.08,13.855 18.804,13.743 18.804,13.743 L18.804,13.743 C18.504,13.717 18.568,13.003 18.568,13.003 L18.568,13.003 L18.629,12.653 L18.568,12.442 C18.438,12.297 18.415,11.909 18.415,11.909 L18.415,11.909 C18.582,11.545 18.355,11.401 18.355,11.401 L18.355,11.401 C17.921,11.423 17.943,11.271 17.943,11.271 L17.943,11.271 L17.883,11.165 L17.731,11.006 C17.731,11.006 17.61,10.838 17.586,10.83 L17.586,10.83 C17.564,10.823 17.481,10.808 17.351,10.8 L17.351,10.8 C17.222,10.792 17.351,10.8 17.23,10.8 L17.23,10.8 C17.108,10.8 17.23,10.8 17.138,10.784 L17.138,10.784 C17.047,10.77 17.092,10.762 17.062,10.739 L17.062,10.739 C17.032,10.716 16.994,10.702 16.933,10.663 L16.933,10.663 C16.899,10.642 16.902,10.645 16.899,10.647 L16.899,10.647 C16.895,10.648 16.886,10.65 16.849,10.64 L16.849,10.64 C16.766,10.617 16.849,10.64 16.735,10.64 L16.735,10.64 L16.691,10.64 L16.682,10.64 L16.666,10.64 L16.615,10.625 C16.604,10.611 16.603,10.585 16.598,10.534 L16.598,10.534 C16.598,10.534 16.492,10.374 16.431,10.367 L16.431,10.367 C16.37,10.359 16.431,10.367 16.409,10.359 L16.409,10.359 C16.386,10.351 16.332,10.389 16.332,10.389 L16.332,10.389 L16.218,10.511 L16.073,10.549 L15.958,10.519 L15.823,10.329 L15.808,10.222 L15.565,9.941 C15.261,9.721 15.17,10.047 15.17,10.047 L15.17,10.047 C15.29,10.047 15.295,10.199 15.295,10.199 L15.295,10.199 L15.359,10.351 C15.488,10.412 15.549,10.724 15.549,10.724 L15.549,10.724 C15.618,11.196 15.958,11.074 15.958,11.074 L15.958,11.074 C16.215,11.035 16.218,10.83 16.218,10.83 L16.218,10.83 L16.37,10.861 C16.37,10.861 16.386,10.967 16.393,10.998 L16.393,10.998 C16.401,11.028 16.454,11.104 16.454,11.104 L16.454,11.104 L16.644,11.153 C16.948,11.393 16.507,11.758 16.507,11.758 L16.507,11.758 C16.104,12.48 15.17,12.663 15.17,12.663 L15.17,12.663 C14.493,13.027 14.553,12.594 14.553,12.594 L14.553,12.594 C14.577,12.275 14.439,12.039 14.439,12.039 L14.439,12.039 L14.211,11.788 L14.014,11.439 C13.876,11.408 13.74,10.846 13.74,10.846 L13.74,10.846 L13.625,10.716 L13.436,10.389 C13.377,10.098 13.222,10.132 13.144,10.166 L13.144,10.166 C13.111,10.181 13.092,10.196 13.101,10.184 L13.101,10.184 C13.093,10.194 13.083,10.207 13.071,10.222 L13.071,10.222 C13.04,10.26 13.063,10.276 13.071,10.382 L13.071,10.382 C13.075,10.443 13.075,10.434 13.078,10.426 L13.078,10.426 C13.082,10.419 13.087,10.413 13.101,10.435 L13.101,10.435 C13.131,10.488 13.086,10.504 13.101,10.564 L13.101,10.564 C13.117,10.625 13.139,10.648 13.146,10.671 L13.146,10.671 C13.155,10.693 13.231,10.83 13.237,10.868 L13.237,10.868 C13.245,10.907 13.283,11.028 13.314,11.153 L13.314,11.153 C13.344,11.278 13.344,11.241 13.375,11.294 L13.375,11.294 C13.406,11.347 13.573,11.446 13.58,11.476 L13.58,11.476 C13.588,11.507 13.596,11.735 13.625,11.818 L13.625,11.818 C13.643,11.867 13.641,11.86 13.641,11.852 L13.641,11.852 C13.641,11.846 13.643,11.841 13.657,11.857 L13.657,11.857 C13.687,11.895 13.755,11.94 13.854,12.024 L13.854,12.024 C13.953,12.107 13.854,12.131 13.854,12.169 L13.854,12.169 C13.854,12.206 14.181,12.548 14.181,12.548 L14.181,12.548 C14.181,12.548 14.402,12.754 14.424,12.769 L14.424,12.769 C14.447,12.784 14.531,12.913 14.531,12.913 L14.531,12.913 C14.531,12.913 14.523,12.974 14.531,12.997 L14.531,12.997 C14.539,13.02 14.531,13.073 14.531,13.073 L14.531,13.073 L14.705,13.116 L15.587,13.035 C15.587,13.035 15.648,13.187 15.648,13.195 L15.648,13.195 C15.648,13.195 15.662,13.196 15.684,13.197 L15.684,13.197 L15.497,13.357 L15.365,13.618 C15.663,13.795 15.365,14.165 15.365,14.165 L15.365,14.165 L14.568,14.68 C14.391,14.713 13.924,15.084 13.924,15.084 L13.924,15.084 C14.037,15.744 13.762,15.712 13.762,15.712 L13.762,15.712 C13.424,16.324 13.731,16.742 13.731,16.742 L13.731,16.742 C13.875,17.323 13.473,17.194 13.473,17.194 L13.473,17.194 C13.151,17.113 13.055,17.468 13.055,17.468 L13.055,17.468 L12.813,18.257 L12.813,18.434 L12.233,19.157 L12.104,19.3 L11.75,19.207 C11.55,19.313 11.342,19.315 11.158,19.277 L11.158,19.277 L11.178,19.267 C10.489,18.861 10.609,18.192 10.609,18.192 L10.609,18.192 L10.306,17.705 C9.658,17.219 10.144,16.956 10.144,16.956 L10.144,16.956 C10.001,16.713 10.042,16.287 10.042,16.287 L10.042,16.287 C9.82,16.104 9.901,15.902 9.901,15.902 L9.901,15.902 L9.739,15.496 C9.231,15.394 9.394,15.03 9.394,15.03 L9.394,15.03 C9.617,13.955 9.293,14.259 9.293,14.259 L9.293,14.259 C8.968,14.583 8.846,14.259 8.846,14.259 L8.846,14.259 C8.968,13.752 8.502,13.894 8.502,13.894 L8.502,13.894 C7.974,14.279 7.792,14.148 7.792,14.148 L7.792,14.148 L7.589,14.056 L7.143,14.015 C6.9,13.813 6.839,13.915 6.839,13.915 L6.839,13.915 C6.798,14.32 6.495,14.077 6.495,14.077 L6.495,14.077 C5.4,13.002 5.745,11.846 5.745,11.846 L5.745,11.846 C5.278,11.34 5.745,11.34 5.745,11.34 L5.745,11.34 L6.129,10.65 C6.129,10.65 5.973,10.375 6.208,10.375 L6.208,10.375 C6.208,10.375 6.208,10.366 6.393,10.24 L6.393,10.24 C6.393,10.24 6.553,9.298 6.721,9.643 L6.721,9.643 L6.923,9.651 C6.923,9.651 7.251,9.194 7.662,9.144 L7.662,9.144 C7.975,9.19 7.977,9.059 7.977,9.059 L7.977,9.059 C8.144,8.876 8.457,8.762 8.457,8.762 L8.457,8.762 C9.285,8.907 9.14,8.709 9.14,8.709 L9.14,8.709 L9.49,8.702 L9.489,8.67 C9.599,8.736 9.679,8.846 9.528,9.02 L9.528,9.02 C9.528,9.02 9.194,9.505 9.802,9.495 L9.802,9.495 C9.802,9.495 10.281,9.485 10.258,9.728 L10.258,9.728 C10.258,9.728 10.281,9.865 10.615,9.857 L10.615,9.857 C10.615,9.857 10.63,9.972 10.722,9.979 L10.722,9.979 C10.722,9.979 10.927,9.994 10.95,9.842 L10.95,9.842 C10.95,9.842 11.004,9.241 11.421,9.446 L11.421,9.446 L11.504,9.553 C11.504,9.553 12.652,10.107 12.669,9.698 L12.669,9.698 L12.673,9.666 C12.759,9.666 12.851,9.683 12.901,9.748 L12.901,9.748 C12.901,9.748 13.259,9.925 13.243,9.495 L13.243,9.495 C13.243,9.495 13.25,9.271 13.392,9.154 L13.392,9.154 C13.392,9.154 13.477,8.54 13.055,8.898 L13.055,8.898 L12.943,8.964 C12.943,8.964 12.812,9.099 12.743,8.74 L12.743,8.74 C12.743,8.74 12.668,8.657 12.625,8.657 L12.625,8.657 C12.584,8.657 12.5,8.69 12.476,8.706 L12.476,8.706 C12.451,8.723 12.457,8.749 12.413,8.773 L12.413,8.773 C12.368,8.798 12.292,8.848 12.292,8.848 L12.292,8.848 L12.047,8.706 C11.944,8.538 11.994,8.199 11.994,8.199 L11.994,8.199 C11.912,7.866 11.543,7.974 11.509,7.989 L11.509,7.989 C11.476,8.005 11.485,8.048 11.485,8.082 L11.485,8.082 C11.485,8.115 11.485,8.156 11.492,8.182 L11.492,8.182 C11.501,8.207 11.518,8.299 11.526,8.351 L11.526,8.351 C11.535,8.403 11.617,8.498 11.617,8.498 L11.617,8.498 L11.485,8.581 C11.485,8.581 11.367,8.64 11.243,8.657 L11.243,8.657 L11.085,8.598 L11.003,8.549 L11.003,8.457 C11.003,8.457 10.993,8.315 11.002,8.29 L11.002,8.29 C11.009,8.265 10.965,8.04 10.965,8.04 L10.965,8.04 L10.893,7.823 L10.709,7.618 L10.284,7.299 C9.918,7.099 10.086,7.449 10.086,7.449 L10.086,7.449 L10.21,7.618 L10.602,7.989 L10.609,8.128 L10.551,8.22 C10.194,8.316 10.292,8.715 10.293,8.717 L10.293,8.717 C10.042,8.928 9.885,8.682 9.885,8.682 L9.885,8.682 C9.843,8.39 10.244,8.428 10.244,8.428 L10.244,8.428 L10.244,8.173 L9.869,7.874 L9.869,7.749 L9.736,7.618 L9.734,7.618 C9.685,7.462 9.361,7.615 9.361,7.615 L9.361,7.615 C9.231,7.774 9.05,7.688 9.05,7.688 L9.05,7.688 C8.958,7.389 8.707,7.668 8.654,7.713 L8.654,7.713 C8.622,7.739 8.627,7.735 8.63,7.732 L8.63,7.732 C8.633,7.729 8.636,7.726 8.623,7.736 L8.623,7.736 C8.593,7.758 8.585,7.797 8.57,7.842 L8.57,7.842 C8.555,7.888 8.463,7.948 8.388,7.989 L8.388,7.989 L8.274,8.146 L8.228,8.17 C8.182,8.192 8.151,8.283 8.151,8.283 L8.151,8.283 C8.061,8.755 7.468,8.822 7.468,8.822 L7.468,8.822 C7.4,8.828 7.305,8.844 7.268,8.886 L7.268,8.886 C7.268,8.886 6.839,8.819 6.83,8.768 L6.83,8.768 L6.907,8.657 L7.027,8.616 L7.14,8.657 L7.305,8.581 L7.555,8.428 L7.468,8.351 L7.158,8.297 L6.958,8.262 C6.958,8.262 6.794,7.797 7.158,7.688 L7.158,7.688 C7.158,7.688 7.305,7.621 7.338,7.618 L7.338,7.618 C7.374,7.615 7.754,7.618 7.754,7.618 L7.754,7.618 L8.142,7.618 L8.142,7.425 L8.142,7.236 L7.987,7.07 C7.987,7.07 7.935,6.959 7.908,6.924 L7.908,6.924 C7.883,6.889 7.865,6.846 7.874,6.803 L7.874,6.803 C7.883,6.76 7.935,6.664 7.935,6.664 L7.935,6.664 L8.142,6.63 L8.513,6.698 L8.807,6.698 L8.989,6.681 L9.032,6.57 L9.135,6.275 L9.262,6.12 L9.32,6.076 C9.437,6.029 9.55,5.932 9.55,5.932 L9.55,5.932 C9.811,5.671 9.975,5.754 9.975,5.754 L9.975,5.754 L10.185,5.828 C10.758,6.197 10.44,5.46 10.44,5.46 L10.44,5.46 C10.088,5.527 10.163,5.414 10.163,5.414 L10.163,5.414 C10.293,5.198 10.084,4.955 10.084,4.955 L10.084,4.955 C10.06,4.881 9.567,4.887 9.567,4.887 L9.567,4.887 L9.595,4.818 L9.736,4.535 L9.727,4.501 C9.903,4.39 10.182,4.249 10.41,4.296 L10.41,4.296 C10.41,4.296 10.562,3.916 11.057,3.631 L11.057,3.631 L11.564,3.232 C11.564,3.232 11.894,3.155 12.199,3.574 L12.199,3.574 C12.199,3.574 12.464,3.745 12.903,3.727 L12.903,3.727 C12.903,3.727 13.263,3.84 12.713,4.012 L12.713,4.012 C12.713,4.012 12.331,4.563 13.321,4.012 L13.321,4.012 C13.321,4.012 13.568,3.592 13.967,3.802 L13.967,3.802 C13.967,3.802 14.257,4.164 14.216,3.45 L14.216,3.45 C14.216,3.45 14.367,3.327 14.557,3.45 L14.557,3.45 L14.632,3.269 Z M7.984,4.552 L7.944,4.45 L7.889,4.411 C7.88,4.331 7.882,4.188 7.98,4.114 L7.98,4.114 L8.109,4.068 C8.109,4.068 8.527,3.727 8.621,4.012 L8.621,4.012 C8.736,4.122 8.648,4.222 8.648,4.222 L8.648,4.222 C8.631,4.268 8.365,4.342 8.365,4.342 L8.365,4.342 C8.233,4.376 8.222,4.58 8.222,4.58 L8.222,4.58 L8.08,4.58 C8.064,4.58 7.984,4.552 7.984,4.552 L7.984,4.552 Z M8.229,6.405 C8.092,6.296 8.24,6.157 8.24,6.157 L8.24,6.157 C8.222,6.084 8.358,5.998 8.358,5.998 L8.358,5.998 C8.494,5.969 8.444,5.8 8.444,5.8 L8.444,5.8 L8.358,5.777 C8.322,5.765 8.314,5.708 8.313,5.658 L8.313,5.658 C8.324,5.635 8.323,5.605 8.319,5.577 L8.319,5.577 L8.319,5.574 C8.319,5.574 8.319,5.573 8.318,5.573 L8.318,5.573 C8.312,5.543 8.302,5.516 8.302,5.516 L8.302,5.516 C8.205,5.335 8.347,5.204 8.347,5.204 L8.347,5.204 C8.365,5.107 8.523,5.107 8.523,5.107 L8.523,5.107 C8.692,5.005 8.682,5.278 8.682,5.278 L8.682,5.278 C8.898,5.238 8.749,5.46 8.749,5.487 L8.749,5.487 C8.749,5.516 8.733,5.68 8.733,5.697 L8.733,5.697 C8.733,5.715 8.893,6.241 8.893,6.241 L8.893,6.241 L8.868,6.363 C8.828,6.413 8.781,6.499 8.617,6.499 L8.617,6.499 C8.528,6.499 8.404,6.474 8.229,6.405 L8.229,6.405 Z M7.669,6.071 C7.684,6.041 7.769,5.858 7.88,5.734 L7.88,5.734 C7.996,5.661 8.066,5.631 8.105,5.627 L8.105,5.627 C8.106,5.628 8.108,5.628 8.109,5.628 L8.109,5.628 C8.126,5.639 8.139,5.644 8.154,5.651 L8.154,5.651 C8.161,5.673 8.149,5.703 8.149,5.703 L8.149,5.703 C8.381,5.783 8.109,5.969 8.109,5.969 L8.109,5.969 C7.966,5.986 7.978,6.172 7.978,6.172 L7.978,6.172 C7.978,6.172 7.963,6.175 7.942,6.182 L7.942,6.182 C7.922,6.186 7.895,6.191 7.865,6.191 L7.865,6.191 C7.798,6.191 7.716,6.167 7.669,6.071 L7.669,6.071 Z M9.186,8.276 C9.17,7.804 9.445,7.895 9.445,7.895 L9.445,7.895 L9.55,7.909 C9.571,7.985 9.544,8.074 9.544,8.074 L9.544,8.074 C9.581,8.284 9.458,8.339 9.363,8.352 L9.363,8.352 L9.361,8.352 L9.262,8.352 L9.186,8.276 Z M11.427,9.056 L11.367,8.964 C11.459,8.907 11.564,8.898 11.564,8.898 L11.564,8.898 L11.709,8.964 L11.76,9.115 L11.76,9.224 L11.676,9.204 C11.584,9.148 11.501,9.154 11.501,9.154 L11.501,9.154 L11.427,9.056 Z M2.556,13.142 L2.634,13.142 L2.704,13.316 L2.795,13.367 L2.876,13.62 L3.049,13.915 L3.21,14.006 L3.363,14.056 C3.363,14.056 3.423,13.995 3.444,14.878 L3.444,14.878 C3.444,14.878 3.423,15.049 3.778,15.02 L3.778,15.02 C3.778,15.02 4.386,15.222 4.507,15.455 L4.507,15.455 C4.507,15.455 4.62,15.384 4.69,15.678 L4.69,15.678 L4.771,15.81 L4.771,15.972 L4.771,16.064 L4.771,16.216 L4.68,16.276 L4.69,16.378 L4.812,16.601 C4.903,16.692 4.812,16.641 4.903,16.692 L4.903,16.692 C4.994,16.742 5.014,16.894 5.014,17.25 L5.014,17.25 C5.014,17.25 5.208,17.351 5.177,17.757 L5.177,17.757 C5.177,17.757 5.409,17.878 5.359,18.163 L5.359,18.163 L5.724,18.608 C5.724,18.608 5.816,18.527 5.847,18.608 L5.847,18.608 L5.907,18.811 L6.383,19.328 C6.383,19.328 6.394,19.483 6.407,19.58 L6.407,19.58 C6.394,19.611 6.371,19.629 6.339,19.635 L6.339,19.635 C4.293,18.114 2.876,15.796 2.556,13.142 L2.556,13.142 Z M14.856,16.696 C15.213,16.709 15.052,17.033 15.052,17.033 L15.052,17.033 L14.891,17.178 L14.633,17.613 C14.665,18.17 14.424,18.128 14.424,18.128 L14.424,18.128 C14.287,18.253 14.152,18.298 14.037,18.307 L14.037,18.307 L14.037,18.306 C13.747,18.144 14.085,17.951 14.118,17.58 L14.118,17.58 C14.15,17.21 14.343,17.049 14.343,17.049 L14.343,17.049 C14.387,17.09 14.43,17.107 14.472,17.107 L14.472,17.107 C14.675,17.107 14.848,16.717 14.856,16.696 L14.856,16.696 Z" id="path-1"></path>
    </defs>
    <g id="Page-1" stroke="none" stroke-width="1" fill="none" fill-rule="evenodd">
        <g id="1920px-NO-OTP-Forgot-PW-Login" transform="translate(-817.000000, -665.000000)">
            <g id="Group-4" transform="translate(258.000000, 659.000000)">
                <g id="Group" transform="translate(557.000000, 4.000000)">
                    <g id="icon/icn/map/globe/24">
                        <mask id="mask-2" fill="white">
                            <use xlink:href="#path-1"></use>
                        </mask>
                        <use id="Clip-138" fill="#D8D8D8" fill-rule="evenodd" xlink:href="#path-1"></use>
                        <g id="color/white" mask="url(#mask-2)" fill="#FFFFFF" fill-rule="evenodd">
                            <g transform="translate(12.000000, 12.000000) rotate(180.000000) translate(-12.000000, -12.000000) " id="Rectangle">
                                <rect x="0" y="0" width="24" height="24"></rect>
                            </g>
                        </g>
                        <rect id="Rectangle" fill-rule="nonzero" x="0" y="0" width="24" height="24"></rect>
                    </g>
                </g>
            </g>
        </g>
    </g>
</svg>