<svg id="icn_car" xmlns="http://www.w3.org/2000/svg" viewBox="0 0 24 24"><defs><style>.a{fill:currentColor;}</style></defs><title>icn_car</title><path class="a" d="M22,12.42a3,3,0,0,0-.89-2.15l-.41-.41-1-6.44A1.77,1.77,0,0,0,17.93,2H6.07A1.77,1.77,0,0,0,4.34,3.44l-1,6.42-.41.41A3,3,0,0,0,2,12.42v4s0,0,0,0,0,0,0,0v4A1.5,1.5,0,0,0,3.5,22h1A1.5,1.5,0,0,0,6,20.5V19H18v1.5A1.5,1.5,0,0,0,19.5,22h1A1.5,1.5,0,0,0,22,20.5v-4s0,0,0,0,0,0,0,0ZM5.5,18H3V17H21v1H5.5ZM5.32,3.62A.77.77,0,0,1,6.07,3H17.93a.77.77,0,0,1,.75.6l1,6.4H4.29ZM3,12.42A2,2,0,0,1,3.58,11H20.42A2,2,0,0,1,21,12.42v3.51H3ZM5,20.5a.5.5,0,0,1-.5.5h-1a.5.5,0,0,1-.5-.5V19H5Zm16,0a.5.5,0,0,1-.5.5h-1a.5.5,0,0,1-.5-.5V19h2Z"/><circle class="a" cx="5.5" cy="13.5" r="1.5"/><circle class="a" cx="18.5" cy="13.5" r="1.5"/></svg>