<svg id="icn_product_instant-money" xmlns="http://www.w3.org/2000/svg" viewBox="0 0 24 24"><defs><style>.a{fill:currentColor;}</style></defs><title>icn_product_instant-money</title><path class="a" d="M10.5,11a.5.5,0,0,0-.5.5v2a.5.5,0,0,0,1,0v-2A.5.5,0,0,0,10.5,11Z"/><path class="a" d="M18.5,11a.5.5,0,0,0-.5.5v2a.5.5,0,0,0,1,0v-2A.5.5,0,0,0,18.5,11Z"/><circle class="a" cx="14.5" cy="12.5" r="2.5"/><path class="a" d="M23,13.25v-1.5a3.42,3.42,0,0,0,0-.47V8H6v9H9.29a3.42,3.42,0,0,0,.47,0h9.49a3.42,3.42,0,0,0,.47,0H23V13.72A3.42,3.42,0,0,0,23,13.25ZM7,9H7Zm0,7H7Zm2.47,0A4.51,4.51,0,0,0,7,13.54V11.46A4.51,4.51,0,0,0,9.47,9H19.54A4.56,4.56,0,0,0,22,11.46v2.08A4.56,4.56,0,0,0,19.54,16Z"/><path class="a" d="M4.5,9h-3a.5.5,0,0,0,0,1h3a.5.5,0,0,0,0-1Z"/><path class="a" d="M4.5,11h-2a.5.5,0,0,0,0,1h2a.5.5,0,0,0,0-1Z"/><path class="a" d="M4.5,13h-1a.5.5,0,0,0,0,1h1a.5.5,0,0,0,0-1Z"/></svg>