<svg id="icn_people_international" xmlns="http://www.w3.org/2000/svg" viewBox="0 0 24 24"><defs><style>.a{fill:currentColor;}</style></defs><title>icn_people_international</title><path class="a" d="M15.5,8a6.46,6.46,0,0,0-3.67,1.14A5.45,5.45,0,0,0,9.49,7.38a3.5,3.5,0,1,0-4,0A5.5,5.5,0,0,0,2,12.5V13a2,2,0,0,0,2,2H9A6.49,6.49,0,1,0,15.5,8ZM18,15.87c0-.44.06-.9.06-1.37s0-.93-.06-1.37c1.94.36,3,1.07,3,1.37S20,15.51,18,15.87ZM15.5,20c-.3,0-1-1-1.37-3,.44,0,.9.06,1.37.06s.93,0,1.37-.06C16.51,19,15.8,20,15.5,20Zm0-3.9A14.25,14.25,0,0,1,14,16a14.48,14.48,0,0,1,0-3,14.48,14.48,0,0,1,3,0,14.48,14.48,0,0,1,0,3A14.25,14.25,0,0,1,15.5,16.1ZM10,14.5c0-.3,1-1,3-1.37,0,.44-.06.9-.06,1.37s0,.93.06,1.37C11,15.51,10,14.8,10,14.5Zm4-5.28a8.75,8.75,0,0,0-.9,2.87,8.75,8.75,0,0,0-2.87.9A5.5,5.5,0,0,1,14,9.22ZM16.87,12c-.44,0-.9-.06-1.37-.06s-.93,0-1.37.06C14.49,10,15.2,9,15.5,9S16.51,10,16.87,12Zm3.91,1a8.75,8.75,0,0,0-2.87-.9A8.75,8.75,0,0,0,17,9.22,5.5,5.5,0,0,1,20.78,13ZM5,4.5A2.5,2.5,0,1,1,7.5,7,2.5,2.5,0,0,1,5,4.5ZM3,13v-.5a4.48,4.48,0,0,1,8.05-2.73A6.45,6.45,0,0,0,9,14H4A1,1,0,0,1,3,13Zm7.22,3a8.75,8.75,0,0,0,2.87.9,8.75,8.75,0,0,0,.9,2.87A5.5,5.5,0,0,1,10.22,16ZM17,19.78a8.75,8.75,0,0,0,.9-2.87,8.75,8.75,0,0,0,2.87-.9A5.5,5.5,0,0,1,17,19.78Z"/></svg>