<?xml version="1.0" encoding="UTF-8"?>
<svg width="20px" height="18px" viewBox="0 0 20 18" version="1.1" xmlns="http://www.w3.org/2000/svg" xmlns:xlink="http://www.w3.org/1999/xlink">
    <!-- Generator: Sketch 63.1 (92452) - https://sketch.com -->
    <title>Fill 1 Copy 2</title>
    <desc>Created with Sketch.</desc>
    <g id="Page-1" stroke="none" stroke-width="1" fill="none" fill-rule="evenodd">
        <g id="1920px-NO-OTP-Forgot-PW-Login" transform="translate(-565.000000, -665.000000)" fill="#FFFFFF">
            <g id="Group-4" transform="translate(258.000000, 659.000000)">
                <g id="Group-2" transform="translate(307.000000, 6.000000)">
                    <path d="M16.0530975,0 L16.0038081,0.0379666737 L15.9592554,0.0211459955 L15.9137647,0.0350831289 L15.8921918,0.0672827129 L15.8237213,0.054258702 L15.670413,0.104288205 L15.6469173,0.0836228003 L15.5944389,0.0893418309 L15.5076314,0.0735303934 L15.4476494,0.117264157 L15.3050338,0.121108883 L15.280647,0.139851925 L15.2571982,0.206605988 L15.2342653,0.216265863 L15.222025,0.243178948 L15.2305135,0.330165884 L15.162465,0.446468859 L15.101545,0.428686999 L15.0578834,0.450794176 L15.0569454,0.479629625 L14.9214113,0.51802883 L14.8126558,0.580073103 L14.7212055,0.586753315 L14.6714471,0.617511127 L14.5941129,0.59540395 L14.4688494,0.603622053 L14.4397729,0.635821637 L14.3872476,0.658889995 L14.3642678,0.69733726 L14.2934524,0.729969376 L14.2437878,0.785285377 L14.2362373,0.862179906 L14.1518685,0.9357103 L14.103095,0.955414523 L14.1134125,1.02654196 L14.1021102,1.05052344 L14.0172255,1.11689303 L13.9750176,1.12357325 L13.98632,1.16586524 L13.9717348,1.18994284 L13.9680299,1.25145846 L13.9196785,1.29471163 L13.8329648,1.32546944 L13.8235384,1.3591108 L13.7926329,1.37545089 L13.7635563,1.36728084 L13.7874272,1.41389815 L13.749956,1.44898128 L13.7363088,1.49175386 L13.7063413,1.49752095 L13.6715901,1.45181677 L13.6242704,1.48738049 L13.5698223,1.47301082 L13.5585669,1.48118087 L13.5600207,1.51770577 L13.5313663,1.53832311 L13.5158901,1.65034883 L13.4802948,1.69018981 L13.3775421,1.69884044 L13.3410089,1.75074425 L13.3170911,1.7425742 L13.3245478,1.70701048 L13.2921885,1.71715095 L13.2884836,1.75511762 L13.2593602,1.75319526 L13.2593602,1.72431175 L13.2359583,1.72046703 L13.2063659,1.79020075 L13.1670188,1.81999738 L13.1337215,1.82624506 L13.1205902,1.84883283 L13.0872929,1.83633747 L13.067549,1.85455186 L13.0910447,1.88535773 L13.0826031,1.89684385 L13.0605143,1.90217841 L13.044616,1.88776069 L13.026326,1.90121723 L13.0028772,1.88247419 L12.9995474,1.90938727 L13.0202293,1.9391839 L12.969064,1.94687336 L12.9540568,1.98094724 L12.9076281,2.00497678 L12.9306549,2.05068097 L12.9057991,2.08331309 L12.871048,2.09676963 L12.8743308,2.06509869 L12.8424874,2.0410211 L12.832123,2.10546832 L12.8025775,2.1275755 L12.7908531,2.1641004 L12.770265,2.27271392 L12.7777687,2.30822958 L12.7552109,2.33182659 L12.773501,2.33514267 L12.7749548,2.3596528 L12.7496301,2.42313885 L12.7439555,2.48369329 L12.7266034,2.50383004 L12.7298862,2.54953423 L12.7012787,2.63555998 L12.672718,2.66247307 L12.6675124,2.70615877 L12.6890853,2.74076131 L12.6694352,2.7653195 L12.6848645,2.79607731 L12.6656834,2.82154862 L12.6665744,2.87873893 L12.6243666,2.89459843 L12.5699654,2.94020649 L12.5132662,2.93737101 L12.4457336,2.98778498 L12.4269277,3.05607694 L12.3481866,3.07909724 L12.2933164,3.13393265 L12.2464188,3.1857884 L12.1915486,3.32515973 L12.1371474,3.36221328 L12.126314,3.39008755 L12.1038501,3.39200991 L11.6446756,3.50350698 L11.5326372,3.5073517 L11.4889755,3.55204665 L11.4533803,3.55344036 L11.4496285,3.62221291 L11.480534,3.6904568 L11.4726083,3.77167665 L11.4467677,3.79810914 L11.2967423,4.22727673 L11.2582393,4.27389404 L11.24281,4.38731347 L11.1870019,4.53389367 L11.1888309,4.58099157 L11.1161865,4.74290261 L10.8155728,4.94234779 L10.5482565,4.92893931 L10.4563372,4.87895787 L10.4136603,4.88563808 L10.3850059,4.92605576 L10.3404532,4.9399929 L10.2978232,4.9735862 L10.2800022,5.00535325 L10.2236781,5.00102793 L10.1509868,5.02217393 L10.0731837,4.99766379 L10.0178445,5.01929038 L9.97516772,5.01352329 L9.72238962,4.89770091 L9.69800287,4.9188469 L9.63605113,4.93758994 L9.57367731,4.89669167 L9.57227038,4.86833681 L9.51885401,4.87842922 L9.52724868,4.84820005 L9.49868804,4.85012242 L9.41375647,4.7410283 L9.3720645,4.75251442 L9.37061068,4.72704311 L9.34392594,4.75448485 L9.25904127,4.7516013 L9.25242871,4.78524266 L9.19286875,4.78139793 L9.19057077,4.74290261 L9.14367316,4.73333885 L9.10287224,4.76116506 L9.06769904,4.74727598 L9.03111891,4.68239623 L8.98980212,4.67278441 L8.97807771,4.63722069 L8.950924,4.63573086 L8.94529629,4.61891018 L8.96171045,4.59973461 L8.89464687,4.57902114 L8.87963964,4.53144265 L8.84301261,4.49881054 L8.82430046,4.51414138 L8.78392162,4.49832995 L8.76849231,4.45651855 L8.76380255,4.47333923 L8.7394158,4.48054809 L8.72998938,4.45358694 L8.7079475,4.4401304 L8.7178429,4.42816369 L8.70752542,4.41081436 L8.68126276,4.42720251 L8.60758663,4.35367211 L8.56866161,4.36712866 L8.57011544,4.32964257 L8.51895015,4.28831176 L8.52790759,4.26428222 L8.50164493,4.26375357 L8.46928559,4.3123413 L8.41253948,4.2969624 L8.39753225,4.27485522 L8.35579338,4.28302527 L8.34402208,4.27004931 L8.3220271,4.28302527 L8.30181423,4.25707336 L8.2535566,4.26855948 L8.20384513,4.26139868 L8.12646408,4.31426367 L8.10113938,4.30032653 L8.07675262,4.30897717 L8.05517972,4.33829321 L8.02840119,4.3229143 L8.03876556,4.28538016 L8.00213853,4.31085147 L7.97639175,4.29023413 L7.97259304,4.33973498 L7.9360598,4.35223034 L7.92663338,4.40985318 L7.8558649,4.46132445 L7.82819531,4.53101012 L7.84362462,4.55403042 L7.80709139,4.54350548 L7.77890593,4.55936498 L7.79532009,4.58147216 L7.74143474,4.68960509 L7.78458054,4.73040725 L7.73341525,4.75929075 L7.73205522,4.78476207 L7.75691095,4.80009291 L7.74893836,4.8428655 L7.7226757,4.88227394 L7.6912074,4.89481736 L7.67338631,4.96445497 L7.65045338,4.98324607 L7.70157177,5.01736802 L7.69359918,5.03803342 L7.6480616,5.06638828 L7.64670157,5.09906845 L7.6227369,5.1072385 L7.61898509,5.12405918 L7.65697215,5.15428834 L7.63310127,5.18365244 L7.62695768,5.28837317 L7.56317694,5.29226596 L7.56087895,5.36627694 L7.52237602,5.39266138 L7.5149193,5.41721957 L7.58995547,5.42154489 L7.59980397,5.83384374 L7.59975707,5.8338918 L7.58995547,5.42250607 L7.51538828,5.41813269 L7.48298203,5.47056515 L7.45348344,5.46383688 L7.44738675,5.53539685 L7.43045671,5.56812508 L7.41080662,5.58110103 L7.32451502,5.54986263 L7.30434905,5.57581453 L7.26589301,5.57869808 L7.2288439,5.61666475 L7.23306469,5.64405843 L7.18893404,5.66616561 L7.19034097,5.70893819 L7.05626071,5.74978841 L7.02760628,5.78871626 L6.98586741,5.81418757 L6.96148065,5.9175146 L6.93943878,5.93577705 L6.94042363,5.96605427 L6.84189176,6.0689007 L6.80207569,6.14146991 L6.68572273,6.19284507 L6.51642237,6.18472309 L6.4766063,6.21259735 L6.46671091,6.23854926 L6.48359404,6.2678653 L6.48129606,6.36398346 L6.37952826,6.45572824 L6.29089178,6.46298516 L6.24207137,6.43703326 L6.20080148,6.43751385 L6.16473722,6.45668942 L6.04416348,6.40723663 L6.00856819,6.40675604 L5.94708543,6.40963958 L5.89554496,6.44275229 L5.85657305,6.42934381 L5.79002535,6.43890756 L5.7009199,6.47399069 L5.62072499,6.44376153 L5.55272346,6.4399168 L5.49546148,6.38267844 L5.45658337,6.38561004 L5.40640293,6.36585776 L5.3168285,6.40142148 L5.30463512,6.42501849 L5.28259325,6.42256748 L5.24601312,6.45769866 L5.18030957,6.47644171 L5.15357794,6.520608 L5.14752814,6.44803879 L5.10152159,6.42021258 L5.10433545,6.39229026 L5.07905764,6.36878937 L5.08135562,6.28372479 L5.0583758,6.23513706 L5.08093354,6.18952899 L5.08135562,6.12080451 L5.04669829,5.9977252 L5.05795372,5.91318928 L5.07061607,5.86945552 L5.09917671,5.8651302 L5.12450142,5.8251931 L5.1502951,5.81322639 L5.16534923,5.76612849 L5.23616462,5.65943733 L5.26617909,5.64501961 L5.29380178,5.59066479 L5.30740208,5.51189596 L5.35387761,5.46479806 L5.35195481,5.43067611 L5.32803703,5.42971493 L5.31354567,5.4104913 L5.33131986,5.37204403 L5.31631263,5.34892762 L5.32573905,5.30567444 L5.30365028,5.26823642 L5.32949086,5.20239548 L5.28540711,5.14179298 L5.2952556,5.09085035 L5.26753912,5.06254355 L5.26617909,4.99189671 L5.2168897,5.02068409 L5.23095899,4.96258067 L5.2033363,4.94383762 L5.18879804,4.88611867 L5.1366948,4.82988954 L5.14471429,4.75832957 L5.10714931,4.75544603 L5.15451589,4.694411 L5.1249704,4.63957558 L5.08276255,4.61271056 L5.07952662,4.59584182 L5.09312692,4.54062194 L5.1268932,4.53101012 L5.13247401,4.50842235 L5.1189206,4.49828189 L5.08984409,4.5184667 L5.072023,4.51226708 L5.07905764,4.47766454 L5.05274808,4.47473294 L5.04758935,4.43248901 L4.99604888,4.41134301 L4.96978622,4.35030798 L4.97353803,4.32964257 L4.94300768,4.31517679 L4.96786342,4.28302527 L4.90689653,4.23732108 L4.9074124,4.19603833 L4.86750254,4.17772782 L4.85906097,4.14845984 L4.88063387,4.12202735 L4.87739793,4.09799781 L4.84316268,4.09703662 L4.8192449,4.01240458 L4.77187832,3.92734001 L4.6644359,3.85236784 L4.63020065,3.78369142 L4.58241199,3.77359901 L4.56318397,3.74956947 L4.53406056,3.76687074 L4.50268606,3.73173955 L4.46605903,3.72842348 L4.43229275,3.69862685 L4.43229275,3.69857879 L4.41259576,3.65532561 L4.39430569,3.65436443 L4.3118128,3.55204665 L4.30759202,8.65880456 L4.27143396,8.65298941 L4.19780472,8.68091173 L4.15658173,8.67221304 L4.11812569,8.70686364 L4.09931975,8.75203917 L4.07727788,8.76405394 L3.9886414,8.73565103 L3.93752301,8.78087462 L3.85357629,8.77606871 L3.7790091,8.79817589 L3.75696723,8.86305565 L3.71006962,8.90145486 L3.69412443,9.0038207 L3.65290144,9.05721434 L3.58724479,9.09224941 L3.51080169,9.09945827 L3.45447767,9.08696291 L3.41695958,9.10762831 L3.38788307,9.19946921 L3.41086289,9.26910682 L3.45077276,9.29361695 L3.45077276,9.32389417 L3.39022795,9.32629713 L3.34895805,9.37627857 L3.3048743,9.40083676 L3.22983813,9.42001234 L3.1736079,9.3989144 L3.13421391,9.3642638 L3.10649743,9.37099207 L3.07742091,9.29890345 L3.03193024,9.26862623 L2.76836569,9.23551352 L2.69895723,9.2546891 L2.63991315,9.24315492 L2.55779544,9.26333973 L2.49166981,9.30947645 L2.4429432,9.30226759 L2.39365382,9.32250046 L2.32851304,9.31572413 L2.30271936,9.29409754 L2.26613922,9.30519919 L2.19949773,9.29558738 L2.17886278,9.31956886 L2.13806186,9.31433042 L2.1216477,9.33547641 L2.09444709,9.34071485 L2.07381214,9.31673337 L2.02691454,9.31620472 L1.97818792,9.28544691 L1.94113881,9.291214 L1.86230394,9.19562449 L1.76808665,9.13021608 L1.60483608,9.12589076 L1.56591107,9.10330299 L1.53969531,9.12685194 L1.5124478,9.1062346 L1.46883302,9.13987595 L1.44636907,9.13939536 L1.40130047,9.11921055 L1.38676221,9.03602028 L1.35065106,9.02304433 L1.32532635,9.04135484 L1.25127503,9.0331848 L1.15743292,9.06778733 L1.17853684,8.85627932 L1.11803893,8.85440502 L1.10725248,8.78371011 L1.06832747,8.74723327 L1.06035487,8.71263073 L1.08614856,8.66356241 L1.12788743,8.66072692 L1.15039828,8.6275181 L1.15649497,8.57080838 L1.12043071,8.51654968 L1.11991483,8.46411722 L1.07962979,8.39106742 L1.03878198,8.36511552 L1.00318669,8.39010624 L0.964683758,8.38530033 L0.933731338,8.40505261 L0.906577624,8.38438721 L0.878392162,8.33632813 L0.887818581,8.2070492 L0.820755005,8.17335978 L0.801949065,8.13539311 L0.760679171,8.10131922 L0.687518906,8.12486817 L0.661303144,8.15653911 L0.623785059,8.13640235 L0.604041167,8.16134501 L0.537446566,8.14836906 L0.517796469,8.17335978 L0.5191565,8.29163318 L0.501382307,8.30220618 L0.451623947,8.28629862 L0.474134798,8.3483429 L0.41649764,8.35598429 L0.441306474,8.38914506 L0.437601563,8.43148511 L0.413636886,8.43629101 L0.382262387,8.41226147 L0.360642591,8.42518937 L0.355014878,8.46464587 L0.426768216,8.56311893 L0.376118801,8.60834252 L0.382262387,8.67850878 L0.355014878,8.69773241 L0.327392188,8.74958816 L0.294563864,8.75247171 L0.279509732,8.71647545 L0.259343762,8.71402444 L0.215260012,8.73666027 L0.188575274,8.76309276 L0.180133705,8.79764724 L0.130844321,8.82989488 L0.0351732046,8.84330337 L0.018336964,8.86925527 L0,8.94470803 L0.0332973003,8.96301854 L0.0919662056,9.04183543 L0.135534082,9.07302577 L0.127561489,9.12834177 L0.174928071,9.27199037 L0.279978708,9.35614182 L0.319419595,9.43111398 L0.316136763,9.46379416 L0.35126307,9.51949463 L0.430989,9.58821912 L0.467616031,9.72182336 L0.461472444,9.75983809 L0.497161522,9.81078072 L0.505134115,9.87181575 L0.587158029,9.98811873 L0.592832639,10.0409837 L0.64864079,10.1971277 L0.656613383,10.275464 L0.698821229,10.3336155 L0.752237602,10.6219699 L0.794914424,10.7623505 L0.837169167,10.8397256 L0.891992468,11.0626717 L0.928150523,11.1170265 L0.931433355,11.1602797 L0.975470207,11.2554367 L0.989070513,11.3649633 L1.03320116,11.426479 L1.03273218,11.4471444 L1.15837087,11.6927743 L1.193122,11.7321828 L1.18697841,11.7768296 L1.2948898,11.9421529 L1.35820157,12.1205001 L1.40130047,12.2055166 L1.48618514,12.3227808 L1.57529059,12.5366918 L1.57641613,12.5371243 L1.62500205,12.6135863 L1.71180952,12.7014864 L1.72916163,12.7308505 L1.72723883,12.7899631 L1.75354839,12.8336969 L2.01800399,13.1710236 L2.03587198,13.2287425 L2.15124009,13.4156443 L2.1647935,13.5219029 L2.21783469,13.6300359 L2.1999667,13.691984 L2.25999564,13.8852296 L2.25957356,13.9039726 L2.24034554,13.9183423 L2.24456633,13.9519836 L2.2980296,14.1918465 L2.28766523,14.2417799 L2.25905769,14.2451921 L2.28532035,14.4532879 L2.27411182,14.5570475 L2.24920919,14.6397571 L2.17937865,14.7752357 L2.03488713,14.9228251 L1.9453596,14.9329175 L1.89513226,14.882888 L1.90127585,14.8694315 L1.85292442,14.8483336 L1.8571452,14.8122412 L1.8356192,14.8074353 L1.81732913,14.8410766 L1.78028003,14.8286293 L1.77981105,14.8468918 L1.75073453,14.8718825 L1.75959818,14.9545441 L1.68648481,14.9939526 L1.73338242,15.0506142 L1.70472798,15.1227509 L1.72723883,15.1327952 L1.73614938,15.1568728 L1.73661835,15.1784994 L1.72161112,15.1885438 L1.73432037,15.1919079 L1.73338242,15.2159375 L1.71931314,15.2390539 L1.7573002,15.2746176 L1.74604477,15.3154198 L1.77183846,15.3259928 L1.80185292,15.3101333 L1.81118555,15.2630354 L1.84359179,15.2462627 L1.86558677,15.2476565 L1.91248438,15.2889873 L1.92800748,15.3259928 L1.91295335,15.4048096 L1.98662949,15.4663253 L1.97724997,15.5081847 L2.01096935,15.533656 L2.02597658,15.5206801 L2.02738351,15.5321662 L2.00820239,15.5518704 L1.98662949,15.5504287 L1.93926291,15.4812716 L1.90502766,15.4653641 L1.91346923,15.4413826 L1.89189633,15.4312421 L1.89330326,15.3937561 L1.87027653,15.3557894 L1.85109541,15.3505509 L1.83937101,15.3976008 L1.82431688,15.3923623 L1.81634428,15.4096156 L1.84359179,15.4322514 L1.83937101,15.4562809 L1.88715967,15.475024 L1.99507106,15.5932493 L2.07057621,15.7374265 L2.07240521,15.7604468 L2.05416205,15.7797185 L2.1667163,15.8652637 L2.22482243,15.9311046 L2.26051151,16.0094409 L2.25108509,16.0939769 L2.31209888,16.1161321 L2.33409386,16.1742836 L2.36035652,16.1829342 L2.409599,16.2828971 L2.42038545,16.4053997 L2.46779893,16.5044014 L2.47061279,16.557795 L2.45138477,16.6029225 L2.41199078,16.6216656 L2.39932843,16.589514 L2.36134137,16.5904272 L2.32612126,16.650501 L2.32804406,16.7014917 L2.29896755,16.7216285 L2.27922366,16.777377 L2.25014714,16.7994842 L2.28954113,16.8346154 L2.30225038,16.8114989 L2.31861765,16.819669 L2.32523021,16.8364897 L2.30271936,16.8788297 L2.30647117,16.9268888 L2.2647323,16.9638462 L2.28583622,17.0080606 L2.30454836,17.0066669 L2.32804406,17.0345411 L2.33976847,17.1354171 L2.38521225,17.2258163 L2.42981187,17.2478754 L2.45513658,17.2805556 L2.48421309,17.2791618 L2.45321378,17.2527294 L2.43825344,17.2175982 L2.45935736,17.1022564 L2.43262573,17.0402602 L2.39459177,17.0210846 L2.41053695,16.9407779 L2.47900746,16.8898352 L2.62157618,16.8537909 L2.74444791,16.8494656 L2.81249634,16.861961 L2.86685066,16.8922863 L2.93344526,16.9777834 L2.87252527,17.0254099 L2.91843803,17.1181159 L2.91281032,17.1407517 L2.86591271,17.1882821 L2.88847046,17.250807 L2.86262988,17.2647441 L2.88471865,17.3252986 L2.89878793,17.3084298 L2.92739547,17.3262117 L2.92786445,17.2992986 L2.96955642,17.3055943 L2.98695543,17.2786813 L3.05537904,17.2887737 L3.08919221,17.2618125 L3.14073268,17.2541231 L3.21248602,17.2925703 L3.20592035,17.2676277 L3.2383266,17.2311028 L3.26313543,17.2229327 L3.24489226,17.2651767 L3.25333383,17.2723855 L3.21534677,17.2950213 L3.2481751,17.3387551 L3.23405892,17.3531728 L3.24348534,17.370426 L3.31992843,17.3785961 L3.36213628,17.4021931 L3.4244632,17.3570176 L3.45400869,17.3680711 L3.47745749,17.3560083 L3.55812138,17.3574982 L3.56473394,17.3642264 L3.53331254,17.3690323 L3.52060329,17.3862855 L3.48683701,17.364659 L3.46901592,17.3785961 L3.52482408,17.4602965 L3.55436957,17.5588176 L3.5243551,17.5814535 L3.49391855,17.658348 L3.46343511,17.666518 L3.44702095,17.6953535 L3.59427943,17.6563776 L3.62143314,17.6808877 L3.63925423,17.7284662 L3.73351842,17.7563885 L3.76165699,17.8159818 L3.82121695,17.8433755 L3.83533313,17.8846582 L3.86394067,17.8794198 L3.87468022,17.9101295 L3.85826605,17.9217118 L3.87092841,17.9346877 L3.91834189,17.9211831 L3.91266728,17.9116194 L3.9337712,17.8909539 L4.15841073,17.8971536 L4.22078455,17.9462219 L4.23114892,17.9716932 L4.2569426,17.970684 L4.29868147,18 L4.32724212,17.9961553 L4.34740809,17.9688097 L4.38305027,17.9658781 L4.39153873,17.9533827 L4.37184174,17.9418966 L4.37137276,17.9000852 L4.41165781,17.846259 L4.51159661,17.7890206 L4.59221359,17.7765253 L4.60398489,17.7207767 L4.70997348,17.6617121 L4.73013945,17.6328286 L4.79860995,17.6035606 L4.83143828,17.5333463 L4.8938121,17.4780784 L4.9603598,17.449291 L5.1169978,17.4180045 L5.34168423,17.4569324 L5.36414819,17.4348733 L5.37122973,17.4012319 L5.34637399,17.3594205 L5.34914095,17.3406294 L5.41198375,17.3021821 L5.52880568,17.2911286 L5.68450573,17.3170805 L5.89835882,17.4055572 L6.00805232,17.3632652 L6.0338929,17.3324594 L6.05171399,17.3343817 L6.04416348,17.3103522 L6.06859713,17.2959345 L6.18063551,17.2786813 L6.37385365,17.3373133 L6.51736032,17.3161673 L6.58587772,17.2897348 L6.60885755,17.2608994 L6.64262383,17.2532099 L6.62803867,17.2421564 L6.63225946,17.2214429 L6.67967294,17.1950585 L6.64117,17.1801121 L6.63652714,17.1623302 L6.66039802,17.1104745 L6.75892989,17.0566483 L6.88273957,17.049872 L6.94136158,17.0244487 L6.87987882,16.9874432 L6.89493295,16.917277 L6.93850082,16.8687373 L7.03370296,16.8288002 L7.13504869,16.8191884 L7.2817913,16.8331255 L7.31185267,16.8168335 L7.33525457,16.8211108 L7.43144156,16.7365748 L7.45484347,16.7365748 L7.67015038,16.7923234 L7.68276583,16.7831921 L7.71793904,16.792804 L7.85867875,16.8389407 L7.912611,16.874985 L7.96462045,16.8490331 L8.02985502,16.8696504 L8.23620448,16.8720534 L8.29248161,16.8922863 L8.40644279,16.8994471 L8.41910515,16.8893546 L8.41488436,16.8101052 L8.46600275,16.7687744 L8.50867957,16.7490702 L8.59351734,16.7461866 L8.65213935,16.7091812 L8.73749299,16.7149482 L8.72300163,16.6486267 L8.79522395,16.5505862 L8.62259386,16.4842647 L8.61837308,16.4150115 L8.56397185,16.4068895 L8.62170281,16.4154921 L8.62592359,16.4847452 L8.79845988,16.5510187 L8.72623757,16.6491073 L8.74077583,16.7154288 L8.93305601,16.7595951 L9.36123116,16.82212 L9.558248,16.8951698 L9.64360164,16.8975247 L9.75662487,16.9859534 L9.79222016,16.999458 L9.92025062,17.0297352 L9.92822321,17.0056576 L9.96152051,16.999458 L10.0267082,17.0297352 L10.0736527,17.0215652 L10.1931947,17.0681344 L10.204028,17.0354543 L10.2382633,17.0350217 L10.1931947,16.9946521 L10.2316507,16.9273213 L10.3001212,16.8634027 L10.3127836,16.7606044 L10.3587432,16.724512 L10.4347174,16.6981276 L10.5533683,16.6870259 L10.6617018,16.6981276 L10.7676904,16.7317209 L10.8910311,16.792804 L10.9655983,16.785547 L11.1001944,16.8163529 L11.1663669,16.8119795 L11.2019622,16.7812217 L11.2479687,16.7850664 L11.2146245,16.7183124 L11.1424491,16.6644862 L11.1663669,16.5462609 L11.2052919,16.4760946 L11.2474998,16.433274 L11.3478606,16.3621946 L11.4172222,16.3309081 L11.5461906,16.3073592 L11.7019376,16.3030339 L11.8416455,16.332398 L11.9767575,16.3890596 L12.0775405,16.3818988 L12.1821691,16.4025642 L12.2792002,16.369884 L12.5155641,16.2232558 L12.6665744,16.1872115 L12.7547419,16.1161321 L12.8391576,16.1016663 L12.8936057,16.0531747 L12.969064,16.0305389 L13.0342517,15.9536924 L13.0915136,15.9373523 L13.124764,15.893138 L13.3320515,15.7571308 L13.4750892,15.6302067 L13.5745121,15.5725839 L13.6387618,15.5062143 L13.6837835,15.4797818 L13.7199416,15.4288872 L13.7836754,15.4072607 L13.9332788,15.3149392 L13.9595414,15.2625548 L13.9816302,15.2563551 L14.0059701,15.2154569 L14.1485388,15.123664 L14.1433801,15.1135716 L14.1804292,15.0670024 L14.1902777,15.0035163 L14.2310786,14.9573796 L14.3731783,14.898315 L14.4684274,14.8189695 L14.5030847,14.8170471 L14.5036006,14.7945074 L14.5692103,14.7295796 L14.5758229,14.7074724 L14.6686332,14.6690732 L14.6883302,14.6353838 L14.7216275,14.6210141 L14.7221434,14.5902563 L14.7816565,14.5359015 L14.7811875,14.5162453 L14.8337597,14.4898128 L14.84736,14.4537204 L14.9538176,14.3624082 L14.9936805,14.2918094 L15.0410471,14.2634065 L15.0405782,14.2513917 L15.1934643,14.1048115 L15.1999831,14.0803494 L15.2633418,14.0159503 L15.2829919,13.9692849 L15.3739732,13.8986861 L15.3712063,13.8775401 L15.4232157,13.8102094 L15.4321263,13.7746456 L15.4907483,13.7151004 L15.5292512,13.6967899 L15.5634396,13.6194148 L15.5822455,13.6146089 L15.6591107,13.5026312 L15.6924549,13.4935 L15.6994895,13.4320324 L15.7449333,13.3969493 L15.7810445,13.331589 L15.8654601,13.3012637 L15.9278809,13.2599329 L15.9372135,13.2321067 L16.0291328,13.1691012 L16.0380902,13.1426687 L16.0957743,13.1023472 L16.1436098,13.0220404 L16.1867087,12.9778741 L16.2833178,12.9538446 L16.3161461,12.9298151 L16.5285923,12.7106176 L16.7218573,12.440045 L16.6946098,12.4175053 L16.6944691,12.4167844 L16.7213884,12.4391318 L16.7593754,12.4088066 L16.8569224,12.2319972 L16.9642711,12.0902229 L17.2423739,11.6221275 L17.5580416,10.9679953 L17.7718478,10.712321 L17.7728327,10.6974708 L17.7526667,10.6902138 L17.7423023,10.6435965 L17.7657511,10.5672306 L17.923843,10.2716673 L18.1066967,10.0083035 L18.2126853,9.89776766 L18.2506724,9.8376938 L18.3866755,9.70548327 L18.472076,9.58293262 L18.6277291,9.4094874 L18.9279207,9.28881105 L19.354642,8.85969151 L19.4034156,8.78274893 L19.4353528,8.64294506 L19.4306162,8.58431298 L19.5901149,8.25703064 L19.6388884,7.95521962 L19.6327917,7.89754872 L19.6477521,7.78792596 L19.7420632,7.40974905 L19.7378424,7.35587482 L19.9474278,6.76191264 L19.9868687,6.50671893 L19.9544624,6.57976873 L19.9455988,6.55766155 L19.9587301,6.51152483 L19.9872907,6.49854888 L20,6.45140292 L19.9137084,6.46586871 L19.3841875,6.45717001 L19.2613627,6.4399168 L19.1947681,6.41540667 L19.1412579,6.45433453 L19.0596561,6.41204254 L19.0517304,6.38993536 L19.0371921,6.37503705 L18.9320946,6.38128473 L18.8946234,6.729665 L18.885197,7.08631144 L18.3092944,7.08434102 L18.0513576,6.98533931 L18.0491534,6.98831897 L17.8811193,6.91901778 L17.7816963,6.78401982 L17.6696111,6.66963921 L17.6597626,6.63835275 L17.6818044,6.57875949 L17.6757546,6.53166159 L17.5973887,6.45097039 L17.5795677,6.35624595 L17.5059384,6.42256748 L17.4838965,6.4264122 L17.4698273,6.40579486 L17.4520531,6.25873407 L17.4496613,6.04439057 L17.4956209,5.84062007 L17.5730489,5.70792895 L17.6799754,5.58297534 L17.8427101,5.24228452 L17.8614692,5.15145285 L18.0167002,5.01015916 L18.0884067,4.90966762 L18.2150771,4.87607432 L18.7567445,5.26054697 L18.8936855,5.1961478 L18.8402222,5.02933473 L18.9306877,4.76313548 L18.9161963,4.60886583 L18.8922316,4.60064773 L18.8931696,4.55455907 L18.902596,4.49828189 L18.9462108,4.39980883 L18.9565283,4.26087003 L18.9602801,3.94613111 L18.9166653,3.45059393 L18.9283428,3.14253522 L18.9006732,2.93881278 L18.8102077,2.78449507 L18.7834292,2.52545663 L18.7675309,2.48556759 L18.7637791,2.46302788 L18.7144897,2.48705742 L18.7637791,2.46302788 L18.6258532,2.36306499 L18.5447673,2.14631854 L18.5376857,2.00935016 L18.3764049,1.80697337 L18.3628046,1.71715095 L18.3782808,1.4133695 L18.0753222,0.412346912 L18.0143085,0.312864615 L17.9425551,0.312864615 L17.8900767,0.26764102 L17.7910759,0.290757438 L17.6147409,0.232557891 L17.4881173,0.219581939 L17.3470024,0.252310173 L17.2902563,0.242698357 L17.2452346,0.27441735 L17.2100614,0.257548613 L17.1312734,0.264805534 L17.0697907,0.251348992 L16.9769803,0.285470939 L16.8320198,0.300801786 L16.7527629,0.223907257 L16.632705,0.243659539 L16.55115,0.174935053 L16.5065973,0.168206782 L16.494826,0.138842684 L16.4301542,0.120147702 L16.3888374,0.0874675267 L16.3306844,0.0865063451 L16.1937903,0.0192236323 L16.083065,0.0162920283 L16.0530975,0 Z M9.9906,8.99875 L10.0094,9.00075 L10.0093,9.00125 L9.9906,8.99875 Z M15.9865,8.95083179 L15.9873,8.95 L16.0135,9.04889094 L16.0129,9.05 L15.9865,8.95083179 Z M14.6553851,8.16893344 L14.6539143,8.13236568 L14.7052032,8.06644747 L14.7706785,8.04426624 L14.9191365,8.04335204 L15.0007908,8 L15.0572039,8.03950281 L15.0819231,8.14920609 L15.1891507,8.18384924 L15.2161948,8.26319166 L15.2655385,8.26463512 L15.2835679,8.20805132 L15.266013,8.26319166 L15.3238494,8.31424218 L15.3822553,8.42919006 L15.4278033,8.4821652 L15.4624387,8.47538091 L15.5174759,8.5129591 L15.5273921,8.56540497 L15.5990827,8.5894146 L15.6318203,8.62073777 L15.698719,8.64811548 L15.7086826,8.68665597 L15.7489641,8.73183641 L15.7864938,8.71552526 L15.8391586,8.73284683 L15.8542938,8.75834804 L15.8486478,8.81031275 L15.9098529,8.88537289 L15.931678,8.95653569 L15.9753282,9.01432237 L15.971058,9.06479551 L16,9.0989575 L15.9539301,9.21929431 L15.8548158,9.25634322 L15.8382097,9.28761828 L15.8035743,9.30296712 L15.8025779,9.40886929 L15.83579,9.4319166 L15.789815,9.44880513 L15.7902894,9.50461909 L15.7229163,9.51664796 L15.6858611,9.54696071 L15.6526491,9.55364876 L15.6455796,9.59940658 L15.6114186,9.63068164 L15.6194844,9.67735365 L15.5871738,9.80582197 L15.6194844,9.8385405 L15.6413095,9.91023256 L15.6351415,9.92707298 L15.584849,9.94054531 L15.5691918,9.98048115 L15.5397754,9.97230152 L15.4642891,10.0300401 L15.5273921,10.1123176 L15.5758343,10.1430634 L15.5758343,10.1437851 L15.5278665,10.1132318 L15.4647636,10.0309543 L15.2408192,10.1733761 L15.1649533,10.1984443 L15.1175075,10.1970008 L15.0387474,10.2359743 L14.9670568,10.2340016 L14.8807528,10.2075862 L14.8380041,10.2455974 L14.7896568,10.2609944 L14.7104223,10.2403047 L14.6880753,10.2484844 L14.6553851,10.2773055 L14.6425747,10.3292702 L14.5865886,10.4010104 L14.496916,10.4164074 L14.4707734,10.4510505 L14.5206389,10.5044587 L14.5414677,10.5573857 L14.4931204,10.6290778 L14.4418789,10.6512109 L14.3872687,10.6983641 L14.4256998,10.747923 L14.4062945,10.7805934 L14.3967579,10.8417482 L14.3393959,10.8994868 L14.3421952,11 L14.3085086,10.9721411 L14.2563182,10.9870088 L14.1063894,10.95915 L14.070805,10.8965517 L14.0328483,10.9163272 L13.8900838,10.8922694 L13.8112763,10.7844427 L13.7297169,10.7310345 L13.7197058,10.6829671 L13.6879171,10.6738252 L13.6542306,10.5905854 L13.5906532,10.5717723 L13.5593389,10.5279872 L13.5512731,10.483769 L13.4640202,10.5140818 L13.4516369,10.5121091 L13.4540092,10.4928629 L13.3980705,10.5044587 L13.4158627,10.5506014 L13.4156255,10.5506496 L13.3961253,10.5015237 L13.4526332,10.4894948 L13.4644947,10.4707779 L13.4440455,10.4573055 L13.4521588,10.4385405 L13.4255891,10.4221812 L13.4255891,10.3504411 L13.4763562,10.2503609 L13.4597501,10.2373697 L13.3771944,10.2494467 L13.3487269,10.1320449 L13.2581053,10.0415878 L13.1162423,9.68356055 L13,9.52718524 L13.0046971,9.47815557 L13.0469714,9.50601443 L13.0607307,9.45602245 L13.0782382,9.4723336 L13.1110232,9.45549318 L13.1262534,9.41849238 L13.164637,9.39823577 L13.2201487,9.40689655 L13.2518899,9.37562149 L13.2747114,9.38769848 L13.3036059,9.35594226 L13.3520481,9.35493184 L13.3534715,9.30729751 L13.4194212,9.2842502 L13.4204175,9.25485164 L13.4658706,9.19374499 L13.4943381,9.18465116 L13.4744583,9.12927025 L13.512415,9.12686447 L13.5181085,9.07591018 L13.5532659,9.04896552 L13.5347145,9.01961508 L13.5816859,9.01576584 L13.6367231,8.96765036 L13.6395224,8.94835605 L13.6191681,8.93536488 L13.6157995,8.91472334 L13.6922347,8.8406255 L13.7273446,8.8319166 L13.7240234,8.7914996 L13.7766883,8.76027265 L13.7804839,8.72899759 L13.7619801,8.71696872 L13.8046813,8.71167602 L13.7638305,8.66885325 L13.802309,8.66837209 L13.8046813,8.6457097 L13.8236122,8.63223737 L13.8165428,8.60914194 L13.8629923,8.60678428 L13.8497549,8.59138733 L13.865412,8.57165998 L13.8625178,8.5427907 L13.8786494,8.52253408 L13.9033687,8.52301524 L13.9166535,8.49611868 L13.8966788,8.46147554 L13.9593547,8.48789094 L13.9816068,8.48457097 L13.9935157,8.46436247 L14.0604144,8.48500401 L14.0789182,8.47201283 L14.0722284,8.44073777 L14.0926301,8.43592622 L14.1239443,8.39603849 L14.1567294,8.40373697 L14.172861,8.43404972 L14.2407085,8.43207698 L14.2373873,8.40469928 L14.2663293,8.38545309 L14.269176,8.34214916 L14.2975961,8.33396953 L14.3450419,8.242502 L14.4290685,8.16792302 L14.451795,8.18909383 L14.5002372,8.17278268 L14.5576467,8.19202887 L14.5865886,8.1765838 L14.6425747,8.17807538 L14.6553851,8.16893344 Z M14.999,8.95087642 L15,8.95 L15.001,9.05 L14.999,8.95087642 Z M9.9699,11.00565 L10.0292,10.99295 L10.0301,10.99485 L9.9731,11.00705 L9.9699,11.00565 Z M13.0479889,10.9795003 L13.03909,10.9500602 L13.0399447,10.95 L13.05,10.9831126 L13.0258673,11.0162252 L12.9564857,11.0143588 L12.9522624,11.05 L12.95,11.0487357 L12.9545249,11.0108067 L13.0239065,11.0126129 L13.0479889,10.9795003 Z M14.959,10.95 L15.041,11.0499364 L15.0409,11.05 L14.959,10.95 Z M13.0472391,10.99045 L13.0472391,10.96155 L13.0493926,10.96345 L13.05,10.99535 L13.013556,11.01345 L12.9527609,10.99345 L12.9522639,11.03845 L12.95,11.03645 L12.9506074,10.98845 L13.0113473,11.00845 L13.0472391,10.99045 Z M12.95,11.04005 L13.0241297,11.02325 L13.0468601,10.95575 L13.05,10.95825 L13.0267918,11.02725 L12.9523891,11.04425 L12.95,11.04005 Z M12.9964751,10 L13,10.0071655 L12.9503574,10.0468255 L12.9297954,10.0133311 L12.8397141,10.1368105 L12.7143836,10.10015 L12.7143836,10.269955 L12.6665035,10.331778 L12.5821992,10.2351275 L12.3884265,10.2901183 L12.3795163,10.3634394 L12.4558896,10.4734211 L12.4598061,10.58007 L12.3021639,10.5917347 L12.2326447,10.6800533 L12.2091452,10.8966839 L12.0545383,10.8950175 L12.045726,10.9666722 L12.0035249,11 L12,10.9948342 L12.0398512,10.9633394 L12.0496426,10.8916847 L12.2043474,10.8933511 L12.2267698,10.6767205 L12.2973661,10.5865689 L12.4550083,10.5750708 L12.4520709,10.4684219 L12.3756976,10.3582736 L12.3845099,10.2849525 L12.5783805,10.2284619 L12.6625869,10.3266122 L12.710565,10.2651225 L12.710565,10.0951508 L12.8368746,10.130145 L12.9259767,10.0068322 L12.9465387,10.04016 L12.9964751,10 Z M11.0204,11.0174306 L10.9972889,10.9667361 L11.0461778,10.95 L11.05,10.95125 L11.0026222,10.9674306 L11.0256444,11.018125 L10.9972889,11.05 L10.9510667,11.049375 L10.95,11.04875 L10.9919556,11.049375 L11.0204,11.0174306 Z M15.2866524,11.0326321 L15.1515343,10.9548245 L15.0012628,10.9456452 L15,10.9447321 L15.1502715,10.9538633 L15.2853896,11.031719 L15.5782296,11.0542587 L15.6413689,11.0509426 L15.6792524,10.957708 L15.7488319,10.9475675 L16,10.9946654 L16,10.9953863 L15.7499684,10.9485768 L15.6806415,10.9586211 L15.6426316,11.0518557 L15.5794924,11.0552679 L15.2866524,11.0326321 Z M12.0242226,10.98005 L12.0941469,10.96495 L12.0953663,10.96735 L12.0270365,10.98205 L11.9838907,11.03505 L11.9051027,11.01895 L11.9046337,11.01745 L11.9810768,11.03305 L12.0242226,10.98005 Z M15.2444067,10.9595343 L15,10.9023439 L15.0000531,10.9015269 L15.2439284,10.9585731 L15.3385237,11.0009131 L15.3650422,10.9965878 L15.384227,10.9730389 L15.4676091,10.9730389 L15.5394059,10.9442034 L15.6429824,11.0099963 L15.6924589,11.0220591 L15.7259393,11.0532495 L15.8072488,11.0383992 L15.8279747,11.0590646 L15.9183185,11.0792014 L15.9321358,11.0974638 L15.9523303,11.0696376 L15.999628,11.0729537 L16,11.0739629 L15.9528618,11.0705507 L15.9326141,11.0984731 L15.91885,11.0802106 L15.8285061,11.0600258 L15.8077802,11.0393604 L15.7264176,11.0542106 L15.6929904,11.0229722 L15.6435138,11.0109575 L15.5399373,10.9451165 L15.4681405,10.974 L15.3847053,10.974 L15.3655737,10.9975009 L15.339002,11.0018743 L15.2444067,10.9595343 Z M13.0630538,10.95 L13.0647421,10.9527778 L12.9964592,11.0084259 L12.9711345,11.0009259 L12.9374151,11.05 L12.9352579,11.0482407 L12.9683676,11 L12.9936923,11.0065741 L13.0630538,10.95 Z M11.9498899,10.99355 L11.9492333,10.99285 L12.0507667,11.00655 L12.0507198,11.00715 L11.9498899,10.99355 Z M11.95505,11.0215 L12.04195,10.9735 L12.04615,10.9754 L11.95385,11.0265 L11.95505,11.0215 Z M16.0015711,12.0245595 L15.98375,11.9914376 L15.9255969,11.951339 L15.9252687,11.95 L15.983281,11.9900282 L16.001149,12.0231501 L16.0330394,12.0485906 L16.0747313,12.0245595 L16.0747313,12.0262509 L16.0335083,12.05 L16.0015711,12.0245595 Z M15.97025,11.9888 L15.97025,11.9873 L16.02935,12.0109 L16.02975,12.0127 L15.97025,11.9888 Z M15.9497727,11.98795 L15.9833045,11.96905 L15.9997655,12.01895 L16.0498991,12.02895 L16.0502273,12.03095 L16.0002345,12.02105 L15.9837734,11.97105 L15.950054,11.99005 L15.9497727,11.98795 Z M16.0019697,11.9718 L15.9503788,11.9658 L15.95,11.9638 L16.0012121,11.9697 L16.049697,12.0348 L16.05,12.0362 L16.0019697,11.9718 Z M15.97445,11.97595 L15.97475,11.97515 L16.02555,12.02385 L16.02545,12.02485 L15.97445,11.97595 Z M15.96125,11.97635 L15.96145,11.97505 L16.03825,12.02335 L16.03875,12.02495 L15.96125,11.97635 Z M3.96545,14.0173 L4.03395,13.9825 L4.03455,13.9828 L3.96605,14.0175 L3.96545,14.0173 Z" id="Fill-1-Copy-2"></path>
                </g>
            </g>
        </g>
    </g>
</svg>